<?xml version="1.0" encoding="UTF-8" standalone="no"?>
<svg
   xmlns:dc="http://purl.org/dc/elements/1.1/"
   xmlns:cc="http://creativecommons.org/ns#"
   xmlns:rdf="http://www.w3.org/1999/02/22-rdf-syntax-ns#"
   xmlns:svg="http://www.w3.org/2000/svg"
   xmlns="http://www.w3.org/2000/svg"
   xmlns:sodipodi="http://sodipodi.sourceforge.net/DTD/sodipodi-0.dtd"
   xmlns:inkscape="http://www.inkscape.org/namespaces/inkscape"
   width="48"
   height="48"
   viewBox="0 0 12.7 12.7"
   version="1.1"
   id="svg839"
   inkscape:version="1.0.1 (3bc2e813f5, 2020-09-07)"
   sodipodi:docname="hamburger.svg">
  <defs
     id="defs833" />
  <sodipodi:namedview
     id="base"
     pagecolor="#ffffff"
     bordercolor="#666666"
     borderopacity="1.0"
     inkscape:pageopacity="0.0"
     inkscape:pageshadow="2"
     inkscape:zoom="10.903908"
     inkscape:cx="13.534645"
     inkscape:cy="26.984503"
     inkscape:document-units="mm"
     inkscape:current-layer="layer1"
     inkscape:document-rotation="0"
     showgrid="false"
     units="px"
     inkscape:window-width="1920"
     inkscape:window-height="1017"
     inkscape:window-x="-8"
     inkscape:window-y="-8"
     inkscape:window-maximized="1"
     showguides="true"
     inkscape:guide-bbox="true" />
  <metadata
     id="metadata836">
    <rdf:RDF>
      <cc:Work
         rdf:about="">
        <dc:format>image/svg+xml</dc:format>
        <dc:type
           rdf:resource="http://purl.org/dc/dcmitype/StillImage" />
        <dc:title></dc:title>
      </cc:Work>
    </rdf:RDF>
  </metadata>
  <g
     inkscape:label="Capa 1"
     inkscape:groupmode="layer"
     id="layer1">
    <path
       style="fill:#000000;stroke-width:0.029632"
       d="m 2.7500786,4.6153635 c -0.010934,-0.010934 -0.019874,-0.2229071 -0.019874,-0.4710606 0,-0.3840889 0.00697,-0.4538625 0.046873,-0.469174 0.071373,-0.027387 7.103772,-0.020565 7.1471066,0.00694 0.028629,0.018169 0.035845,0.1352751 0.029638,0.4810669 l -0.00815,0.457054 -3.5878281,0.00754 c -1.9733475,0.00414 -3.5968134,-0.00142 -3.6077432,-0.012345 z"
       id="path1426" />
    <path
       style="fill:#000000;stroke-width:0.029632"
       d="M 2.7500786,6.778503 C 2.7391448,6.7675439 2.730205,6.5616223 2.730205,6.3208375 c 0,-0.3178236 0.010139,-0.4442971 0.037039,-0.4615253 0.041673,-0.026698 7.1241113,-0.033769 7.1671773,-0.00716 0.015701,0.0097 0.024071,0.2140317 0.019396,0.4741115 l -0.00815,0.4570539 -3.5878286,0.00755 c -1.9733063,0.00409 -3.5967723,-0.00137 -3.607702,-0.01235 z"
       id="path1424" />
    <path
       style="fill:#000000;stroke-width:0.029632"
       d="m 2.7432887,8.9229941 c -0.00811,-0.021194 -0.011059,-0.2312563 -0.00653,-0.4668226 l 0.00825,-0.428307 H 6.3453074 9.945602 V 8.4871593 8.946458 l -3.5937708,0.0076 C 3.4250943,8.960308 2.7553209,8.9544319 2.7432825,8.923083 Z"
       id="path1422" />
    <path
       style="fill:#000000;stroke-width:0.0244792"
       d="m 9.6452423,11.083072 c -0.010406,-0.01008 -0.018941,-0.150183 -0.018941,-0.311098 v -0.292573 h 0.3237945 c 0.4053692,0 0.5441282,-0.03422 0.6701522,-0.165212 0.05353,-0.05562 0.108597,-0.149656 0.135424,-0.231158 0.04948,-0.150351 0.05399,-0.465415 0.03096,-2.153793 -0.0098,-0.7217181 -0.0062,-0.8227847 0.03417,-0.96076 0.09141,-0.3121102 0.242706,-0.5072278 0.471705,-0.6083543 l 0.1127,-0.049771 -0.112707,-0.05301 C 11.056955,6.1465674 10.913103,5.9646785 10.82169,5.6620537 10.780085,5.5243139 10.7767,5.4314769 10.786651,4.7029883 10.810392,2.9665886 10.805776,2.6769023 10.752009,2.5228449 10.69283,2.3533091 10.562437,2.2166504 10.421982,2.1769753 10.366411,2.1612777 10.16465,2.1427162 9.9736202,2.1357257 L 9.6262968,2.1230142 V 1.8295248 1.5360355 l 0.4862552,4.575e-4 c 0.675011,5.379e-4 0.933928,0.059068 1.196801,0.2703803 0.125403,0.1008055 0.27098,0.3537363 0.3304,0.5740426 0.05794,0.2148515 0.06279,1.2512154 0.0083,1.7764963 -0.02029,0.195711 -0.03735,0.5533266 -0.03789,0.7947026 -9.7e-4,0.4255272 0.0012,0.4429175 0.06558,0.5721859 0.143967,0.2883458 0.335716,0.4055236 0.722479,0.4415003 l 0.196092,0.018242 V 6.3038592 6.623676 l -0.204272,0.027265 c -0.251688,0.033594 -0.402228,0.094252 -0.548788,0.221123 -0.254266,0.2201091 -0.276146,0.399511 -0.194046,1.5909743 0.103585,1.5031867 0.0454,1.9612537 -0.292201,2.3002017 -0.123954,0.124453 -0.303468,0.217833 -0.528884,0.275109 -0.164484,0.04178 -1.1458886,0.079 -1.1808974,0.04479 z"
       id="path1420" />
    <path
       style="fill:#000000;stroke-width:0.0244792"
       d="m 3.065485,11.083072 c 0.010409,-0.01008 0.018944,-0.150183 0.018944,-0.311099 V 10.479401 H 2.7606339 c -0.4053691,0 -0.5441275,-0.03423 -0.6701528,-0.165213 C 2.0369641,10.258568 1.9818843,10.164533 1.9550584,10.083031 1.9055754,9.93268 1.9010694,9.617616 1.9240964,7.9292379 1.9338664,7.2075194 1.9303864,7.1064529 1.8899314,6.9684779 1.7985191,6.6563678 1.6472268,6.46125 1.4182282,6.3601236 L 1.3055201,6.3103534 1.4182282,6.2573443 C 1.6537721,6.146567 1.7976242,5.9646783 1.8890374,5.6620536 1.9306383,5.5243137 1.9340332,5.4314768 1.9240731,4.7029879 1.9003365,2.9665884 1.9049441,2.6769021 1.9587177,2.5228447 2.0178969,2.3533087 2.1482907,2.2166503 2.2887437,2.1769752 2.3443155,2.1612772 2.5460776,2.1427156 2.737106,2.1357258 L 3.0844296,2.1230142 V 1.8295246 1.5360352 L 2.5981758,1.5364926 C 1.923164,1.5370306 1.6642454,1.5955603 1.4013731,1.8068729 1.2759725,1.9076789 1.1303941,2.1606093 1.0709733,2.3809156 1.013034,2.5957671 1.0081781,3.632131 1.0626037,4.157412 1.0828993,4.353123 1.0999478,4.7107387 1.1004851,4.9521146 1.1014646,5.3776417 1.099428,5.3950321 1.0348939,5.5243004 0.89093151,5.8126462 0.69918146,5.9298242 0.31241889,5.965801 L 0.11632657,5.984044 V 6.3038604 6.623677 L 0.32059928,6.650942 C 0.57228806,6.684536 0.72282651,6.745194 0.86938705,6.872065 1.1236533,7.0921739 1.1455336,7.2715757 1.0634337,8.4630393 c -0.10358449,1.5031867 -0.045396,1.9612547 0.2922,2.3002017 0.123954,0.124454 0.3034684,0.217834 0.5288841,0.27511 0.1644842,0.04178 1.1458884,0.079 1.1808979,0.04478 z"
       id="path1420-0" />
  </g>
</svg>
